<svg xmlns="http://www.w3.org/2000/svg" id="Layer_1" width="114.36mm" height="59.33mm" viewBox="0 0 324.16 168.19"><defs><style>.cls-1{fill:#fff;}.cls-2{fill:#676767;}.cls-3{fill:#75cede;}</style></defs><rect class="cls-3" x="5.95" y="5.66" width="146.02" height="156.86"></rect><path class="cls-1" d="M124.13,141.31c-6.87,2.64-20.61,6.52-36.63,6.52-17.97,0-32.76-4.58-44.39-15.67-10.22-9.86-16.56-25.72-16.56-44.21,0-35.4,24.48-61.29,64.29-61.29,13.74,0,24.66,2.99,29.77,5.46l-3.87,12.51c-6.34-2.99-14.27-5.11-26.24-5.11-28.88,0-47.73,17.97-47.73,47.73s17.97,47.91,45.79,47.91c10.04,0,16.91-1.41,20.43-3.17v-35.4h-23.95v-12.33h39.1v57.07Z"></path><path class="cls-2" d="M166.67,127.93c6.87,4.4,16.73,7.75,27.3,7.75,15.68,0,24.84-8.28,24.84-20.25,0-10.92-6.34-17.44-22.37-23.43-19.38-7.05-31.35-17.26-31.35-33.82,0-18.49,15.32-32.23,38.4-32.23,11.98,0,20.96,2.82,26.07,5.81l-4.23,12.51c-3.7-2.29-11.62-5.64-22.37-5.64-16.2,0-22.37,9.69-22.37,17.79,0,11.1,7.22,16.56,23.6,22.9,20.08,7.75,30.12,17.44,30.12,34.87,0,18.32-13.39,34.34-41.39,34.34-11.45,0-23.95-3.52-30.29-7.75l4.05-12.86Z"></path><path class="cls-2" d="M254.27,27.88h63.94v12.86h-48.44v39.45h44.74v12.68h-44.74v53.72h-15.5V27.88Z"></path></svg>